#tb 0: 1/25
0,          0,          0,        1,   518400, 0x89407f55
0,          2,          2,        1,   518400, 0x8611849c
0,          3,          3,        1,   518400, 0x0e69ff59
0,          4,          4,        1,   518400, 0xf31adb03
0,          5,          5,        1,   518400, 0x1a5b6a69
0,          6,          6,        1,   518400, 0x6ae6232e
0,          7,          7,        1,   518400, 0x9a4e3c54
0,          8,          8,        1,   518400, 0xe5852b45
0,          9,          9,        1,   518400, 0x0fcfeebc
0,         10,         10,        1,   518400, 0x06e22dc3
0,         11,         11,        1,   518400, 0x9d79df09
0,         12,         12,        1,   518400, 0xcb2c716f
0,         13,         13,        1,   518400, 0x638a8746
0,         14,         14,        1,   518400, 0xf7032efd
0,         15,         15,        1,   518400, 0x306f6cef
0,         16,         16,        1,   518400, 0xe83d2518
0,         17,         17,        1,   518400, 0x49ab5bf5
0,         18,         18,        1,   518400, 0x6b336b6f
0,         19,         19,        1,   518400, 0x95ae00c9
0,         20,         20,        1,   518400, 0x68ddb64f
0,         21,         21,        1,   518400, 0x5205ea68
0,         22,         22,        1,   518400, 0xb088e617
0,         23,         23,        1,   518400, 0xa3217616
0,         24,         24,        1,   518400, 0x1723bc53
0,         25,         25,        1,   518400, 0xf024872a
0,         26,         26,        1,   518400, 0x2e81a8bb
0,         27,         27,        1,   518400, 0xa3a2418e
0,         28,         28,        1,   518400, 0xb7beffed
0,         29,         29,        1,   518400, 0x50fb6c94
0,         30,         30,        1,   518400, 0x5584bb40
